<?xml version="1.0" encoding="UTF-8"?>
<svg id="Capa_1" data-name="Capa 1" xmlns="http://www.w3.org/2000/svg" viewBox="0 0 200 200">
  <defs>
    <style>
      .cls-1 {
        fill: #e11f26;
      }

      .cls-2, .cls-3 {
        fill: #203367;
      }

      .cls-4 {
        fill: none;
        stroke: #fff;
        stroke-width: .57px;
      }

      .cls-5 {
        fill: #25346e;
      }

      .cls-5, .cls-3, .cls-6, .cls-7 {
        fill-rule: evenodd;
      }

      .cls-6 {
        fill: #9797ca;
      }

      .cls-7 {
        fill: #fff;
      }
    </style>
  </defs>
  <path class="cls-5" d="m192,100.03c0,50.76-41.17,91.89-92.03,91.89S8,150.79,8,100.03,49.22,8.08,99.97,8.08s92.03,41.19,92.03,91.95"/>
  <path class="cls-3" d="m192,100.03c0,50.76-41.17,91.89-92.03,91.89S8,150.79,8,100.03,49.22,8.08,99.97,8.08s92.03,41.19,92.03,91.95"/>
  <path class="cls-6" d="m170.98,100.03c0,39.13-31.79,70.89-71.01,70.89S29.08,139.16,29.08,100.03,60.82,29.14,99.97,29.14s71.01,31.71,71.01,70.89"/>
  <path class="cls-7" d="m171.29,100.03c0,39.33-31.9,71.2-71.32,71.2S28.77,139.36,28.77,100.03,60.66,28.83,99.97,28.83s71.32,31.87,71.32,71.2"/>
  <path class="cls-4" d="m171.29,100.03c0,39.33-31.9,71.2-71.32,71.2S28.77,139.36,28.77,100.03,60.66,28.83,99.97,28.83s71.32,31.87,71.32,71.2Z"/>
  <polygon class="cls-1" points="98.51 141.68 97.3 141.68 96.87 140.56 96.81 140.4 96.01 140.4 95.58 139.28 72.33 79.05 72.33 125.77 78.26 125.77 79.48 125.77 81.33 125.78 81.35 127.65 81.35 128.87 81.35 139.11 81.35 140.86 79.6 140.86 50.57 140.86 49.25 140.82 47.49 140.82 47.49 139.06 47.49 127.53 47.49 125.77 49.25 125.77 57.39 125.77 57.39 69.2 50.59 69.2 48.84 69.2 48.84 69.11 47.49 69.11 47.49 67.35 47.49 55.92 47.49 54.16 49.25 54.16 77.32 54.16 79.45 54.14 80.31 56.58 99.28 106.17 119.03 55.28 119.46 54.16 119.84 54.16 120.67 54.16 149.05 54.16 150.26 54.16 152.1 54.14 152.1 55.99 152.1 57.2 152.1 67.45 152.1 69.2 150.34 69.2 142.2 69.2 142.2 125.77 149.05 125.77 150.27 125.77 152.03 125.78 152.1 127.65 152.1 128.87 152.1 139.11 152.1 140.86 150.34 140.86 119.46 140.86 118.14 140.82 116.39 140.82 116.39 139.06 116.39 127.53 116.39 125.77 118.14 125.77 126.17 125.77 126.17 80.18 102.57 140.57 102.26 141.34 102.13 141.68 101.76 141.68 100.93 141.68 98.51 141.68"/>
  <path class="cls-7" d="m25.93,146.9c.88-.52,1.5-.88,2.02-1.19.83-.57,1.96-1.35,3.52-2.33,1.09-.77,1.87-1.29,2.33-1.6l.57-.41c.83,1.14,1.5,2.17,2.12,2.99l1.24,1.66.73,1.03c-.63.37-1.09.68-1.35.83l-.62-.89-.21-.31-.36-.51-.62-.89-.93-1.24-2.18,1.5.73.98c.52.78.88,1.29,1.03,1.5l.62.83c-.47.31-.93.57-1.29.82-.52-.67-.88-1.23-1.19-1.65-.37-.52-.78-1.09-1.25-1.65l-2.69,1.81-.51.41-.31.21-.68-.93c0-.06-.25-.36-.72-.98"/>
  <path class="cls-7" d="m40.64,149.69c.36.42.67.68.77.83.21.15.47.47.83.78l-4.51,3.93c-.05.05-.1.05-.16.15-.52.46-.77.88-.87,1.24-.11.36-.11.72.05,1.09.15.36.37.72.73,1.04.2.26.41.42.67.57.16.1.36.21.57.25.15.05.31.05.52.05.15,0,.36-.05.57-.1.2-.05.42-.16.57-.26.31-.21.77-.62,1.45-1.15l1.92-1.7c.57-.52,1.19-1.04,1.86-1.66.37.42.62.68.84.88l.77.78-2.69,2.33-2.12,1.86c-.52.41-.93.72-1.25.88-.2.1-.46.21-.72.25-.25.05-.51.05-.77.05-.31-.05-.62-.1-.98-.26-.36-.1-.73-.31-1.1-.57-.46-.32-.93-.73-1.34-1.14-.41-.46-.77-.88-1.08-1.34-.26-.42-.42-.83-.57-1.24-.11-.42-.16-.78-.16-1.14.05-.26.1-.57.26-.82.15-.36.41-.67.72-.98.11-.1.21-.21.42-.36.15-.16.36-.36.67-.62l.78-.67c.26-.21.62-.52,1.08-.92l1.19-1.04c.31-.31.68-.62,1.09-.98"/>
  <path class="cls-7" d="m43.43,166.41c.63-.61,1.25-1.4,1.92-2.22l2.28-2.85c.83-.98,1.56-1.91,2.17-2.74.42.36.83.62,1.14.88.26.16.57.41,1.04.72-.11,1.14-.26,2.59-.37,4.45-.15,1.82-.26,3.32-.41,4.51l4.3-5.33c.1-.16.26-.37.46-.68.36.26.67.52.83.62.1.06.36.26.88.62l-1.76,2.07-2.95,3.57-1.66,2.17c-.41-.31-.78-.57-1.04-.78-.25-.21-.63-.47-1.14-.82.05-.52.1-.88.1-1.14.05-.36.11-1.14.16-2.38.05-.77.1-1.76.21-3,.1-.88.16-1.66.2-2.33-.51.63-1.39,1.76-2.74,3.47-.57.68-1.19,1.5-1.92,2.43-.36-.26-.62-.47-.83-.57-.1-.11-.42-.31-.89-.67"/>
  <path class="cls-7" d="m61.71,175.72c.21,0,.36,0,.57-.05.36-.1.67-.26.98-.46.31-.21.62-.41.88-.72.26-.31.46-.67.62-.98.36-.68.52-1.29.52-1.81s-.16-.99-.41-1.34c-.26-.42-.78-.78-1.55-1.14-.47-.26-.99-.52-1.61-.83v-1.7l.05.05c.36.16.77.36,1.29.62.52.26.99.47,1.35.68.52.26.98.57,1.39.82.42.31.72.62.99.94.26.36.42.72.52,1.09.1.36.15.73.15,1.14,0,.36-.05.77-.15,1.19-.11.41-.26.82-.47,1.24-.42.72-.89,1.39-1.5,1.96-.62.52-1.3.88-2.02,1.08-.57.11-1.09.16-1.61.05v-1.81Zm-3.57-1.35c.36.21.72.42,1.08.57.36.21.78.36,1.15.52.36.15.67.2.94.26h.41v1.81c-.16,0-.36-.05-.57-.1-.68-.2-1.45-.46-2.24-.88l-2.22-1.19c-.16-.05-.57-.25-1.25-.62l1.35-2.17,1.6-2.79,1.5-2.8c.11-.1.26-.46.52-.98.47.26.89.47,1.3.68v1.7s-.05,0-.1-.05l-3.47,6.05Z"/>
  <path class="cls-7" d="m72.79,176.96l1.3.46.05-3.57-.99.97-.37.37v-2.53c.26-.26.47-.47.68-.67.62.2,1.04.36,1.3.46.42.16.89.26,1.3.41v3.21l.11,6.63.05.88-1.04-.36c-.26-.1-.67-.26-1.24-.41.05-.47.05-1.09.05-1.86v-1.92l-1.2-.41v-1.65Zm-1.34-.47l1.34.47v1.65l-2.48-.88c-.93.93-1.86,1.86-2.74,2.84l-1.14-.41c-.21-.1-.62-.2-1.19-.41.78-.67,1.71-1.55,2.8-2.58l3.05-2.84c.62-.63,1.19-1.14,1.7-1.66v2.53l-1.34,1.3Z"/>
  <path class="cls-7" d="m84.65,183.58c.11,0,.21,0,.31-.05.26,0,.57-.16.88-.31.31-.21.62-.41.83-.72.26-.26.41-.57.62-.93.16-.36.26-.77.31-1.14.16-.72.16-1.35,0-1.86-.15-.52-.41-.93-.78-1.18-.36-.32-.98-.53-1.81-.68-.1,0-.26-.05-.36-.05v-1.55c.42.05.78.1,1.09.2.57.1,1.08.21,1.55.36.46.16.89.37,1.2.62.36.26.62.57.83.88.2.36.36.67.46,1.09.1.36.15.77.21,1.19,0,.41-.05.88-.16,1.29-.16.83-.42,1.61-.88,2.28-.41.73-.93,1.24-1.61,1.66-.68.35-1.35.56-2.07.56h-.62v-1.66Zm-3.11-.41c.36.1.78.15,1.14.26.46.04.88.1,1.24.15h.72v1.66c-.57-.05-1.14-.1-1.76-.26l-2.49-.47c-.15,0-.63-.1-1.4-.26l.68-2.48.72-3.1.72-3.1c0-.16.11-.52.21-1.09.52.1,1.03.21,1.5.31.36.04.83.15,1.4.25.16,0,.26,0,.41.06v1.55c-.46-.1-.98-.15-1.5-.26l-1.61,6.78Z"/>
  <path class="cls-7" d="m98.68,178.05h-.21v-1.55h.36c.72,0,1.39.1,2.07.31.66.2,1.29.57,1.81,1.03.47.47.88.98,1.14,1.61.26.62.36,1.34.36,2.12-.05.78-.16,1.51-.46,2.17-.26.67-.62,1.24-1.19,1.76-.52.46-1.19.83-1.92,1.09-.72.15-1.39.26-2.17.31v-1.6c.47,0,.88-.11,1.3-.21.46-.21.83-.41,1.14-.78.36-.31.62-.73.77-1.19.15-.52.25-.99.25-1.5s-.05-.98-.2-1.39c-.11-.47-.31-.88-.62-1.19-.31-.31-.68-.57-1.09-.72-.41-.16-.88-.26-1.35-.26m-.21,0c-.62,0-1.18.16-1.71.47-.52.3-.98.77-1.24,1.39-.31.57-.47,1.19-.47,1.86s.1,1.24.36,1.81c.26.52.67.93,1.19,1.24.57.31,1.14.47,1.76.47h.1v1.6h-.2c-.73-.05-1.5-.15-2.23-.41-.72-.21-1.34-.57-1.87-1.09-.52-.47-.88-.98-1.08-1.61-.21-.61-.31-1.29-.26-2.02,0-.77.16-1.5.46-2.22.26-.73.73-1.29,1.25-1.76.57-.41,1.24-.78,1.97-.98.62-.21,1.29-.31,1.96-.31v1.55Z"/>
  <path class="cls-7" d="m114.63,185.6l-.36-2.79-.52-3.26-.51-2.9-.21-.98c1.19-.26,2.43-.52,3.73-.78l1.4-.31,2.07-.41.21,1.55-.68.1c-.21.05-.46.11-.77.16-.31.05-.67.16-1.04.2-.72.16-1.24.26-1.45.31-.21.05-.52.1-.99.26l.42,2.54c.68-.11,1.34-.21,2.02-.36.46-.11,1.24-.26,2.33-.52.05.41.11.93.21,1.55-1.29.26-2.02.41-2.22.46-.57.1-1.24.26-2.07.46l.42,2.75.82-.16c.21-.04.73-.15,1.56-.36l1.55-.36,1.03-.26c.1.57.16,1.08.26,1.6-1.24.26-2.38.46-3.42.67l-2.33.52-1.45.31Z"/>
  <path class="cls-7" d="m126.28,182.91c-.2-.83-.52-1.81-.83-2.85l-1.08-3.42c-.42-1.24-.78-2.38-1.14-3.31.57-.21.98-.36,1.4-.47.26-.1.68-.25,1.19-.46.83.68,2.02,1.6,3.47,2.74,1.45,1.14,2.64,2.07,3.57,2.8l-2.12-6.52c-.06-.1-.15-.36-.26-.73.42-.16.73-.31.98-.36.05-.05.42-.16.93-.37l.78,2.59,1.39,4.4.83,2.59c-.47.21-.88.31-1.19.47-.26.1-.72.25-1.3.46-.41-.31-.67-.57-.88-.72-.31-.21-.93-.67-1.92-1.4-.62-.46-1.44-1.09-2.38-1.86-.72-.57-1.34-1.03-1.86-1.45.26.78.73,2.17,1.35,4.19.31.88.62,1.87,1.03,2.95-.46.15-.77.31-.93.36-.15.05-.52.16-1.04.37"/>
  <path class="cls-7" d="m147.93,172.82c-.36-.67-.78-1.39-1.24-2.22l-1.5-2.59c-.52-.83-.93-1.61-1.35-2.22-.1.25-.16.46-.21.56-.05.11-.2.47-.42.93-.16-.26-.31-.57-.52-.88-.21-.31-.36-.57-.46-.77.1-.16.21-.42.36-.67.1-.32.21-.47.26-.57,0-.05.05-.16.1-.31.26-.15.57-.36.88-.57.36-.2.68-.41.99-.62l.46.88c.11.21.26.47.47.88l2.95,5.08.46.73c.1.15.21.31.31.46l.42.67c-.25.15-.57.36-.93.57-.36.26-.72.46-1.03.67"/>
  <path class="cls-7" d="m155.69,167.34c-.05-1.03-.05-1.96-.15-2.69-.05-.82-.16-1.6-.26-2.27-.05-.52-.16-.93-.31-1.35-.1-.36-.26-.67-.36-.88-.1-.2-.26-.41-.36-.57-.26-.31-.51-.52-.78-.62-.31-.16-.57-.16-.88-.1-.26.05-.52.16-.78.36-.26.26-.47.52-.57.78-.16.31-.16.62-.1.93.05.32.16.62.36.88.21.21.42.36.68.52.26.1.52.1.78,0,.31-.05.63-.21.88-.47.11-.1.21-.15.31-.25.1-.16.21-.26.31-.42.05.62.16,1.19.21,1.81-.16.21-.36.36-.52.52-.47.36-.93.62-1.45.78-.57.16-1.03.1-1.51-.05-.46-.2-.83-.47-1.18-.88-.42-.51-.68-1.08-.78-1.7-.11-.62,0-1.24.31-1.91.26-.62.72-1.24,1.4-1.76.41-.36.88-.62,1.35-.83.47-.21.93-.31,1.35-.25.46,0,.88.15,1.24.36.37.21.68.47.93.77.21.21.37.52.57.83.16.32.31.67.47,1.09.16.36.25.88.41,1.39.11.57.21,1.19.31,1.81.06.68.16,1.45.27,2.43-.37.26-.68.52-1.04.83l-1.09.93Z"/>
  <path class="cls-7" d="m163.3,160.51l-1.24-3.47-1.71-4.5-.36-.98c-.31.37-.57.62-.72.83-.89.88-1.66,1.76-2.39,2.64-.31-.36-.72-.73-1.13-1.14l4.82-5.22c.41.42.77.78,1.18,1.19,0,0,0,.05.05.16l.05.16c.1.26.36.93.83,2.12l1.29,3.41c.36.93.77,1.87,1.19,2.85-.42.42-.67.72-.88.93l-.99,1.04Z"/>
  <path class="cls-7" d="m167.35,146.28c.16-.31.31-.57.46-.77.31-.42.67-.78,1.09-1.03.41-.26.88-.36,1.39-.31.58.1,1.04.26,1.51.62.36.26.67.57.93.99.26.42.47.88.52,1.39.1.52.05.98-.15,1.5-.16.51-.42.98-.78,1.45-.26.41-.62.77-.98,1.09-.36.31-.77.52-1.24.62-.41.16-.87.16-1.34.06-.47-.11-.89-.31-1.25-.57-.26-.21-.57-.47-.88-.78-.26-.31-.62-.77-.94-1.35-.36-.57-.67-1.29-.98-2.07-.36-.83-.67-1.71-.94-2.64l1.61-2.18c.26,1.09.42,1.82.51,2.18.16.57.37,1.08.58,1.6.2.52.41.98.62,1.35.2.41.46.78.67,1.14.15.21.25.36.47.52.15.16.31.31.46.46.46.31.88.41,1.35.36.41-.05.78-.31,1.09-.73.21-.26.31-.57.37-.88,0-.36-.06-.62-.21-.93-.16-.26-.37-.46-.62-.68-.25-.2-.52-.3-.78-.3-.26-.06-.51,0-.77.21-.26.16-.52.36-.72.61-.1.16-.21.37-.3.62-.37-.83-.63-1.34-.73-1.55"/>
  <path class="cls-7" d="m21.69,95.63c.68.15,1.41.21,2.09.31.16.68.21,1.26.26,1.84.06.52.11,1.05.11,1.41,0,.89-.11,1.72-.37,2.51-.21.78-.57,1.52-1.1,2.15-.53.63-1.16,1.1-1.94,1.42-.74.32-1.58.42-2.47.47-.94,0-1.83-.15-2.67-.52-.84-.32-1.52-.78-2.09-1.47-.58-.62-1-1.36-1.26-2.25-.32-.89-.47-1.78-.47-2.72s.1-1.99.32-3.09c.52-.04.89-.04,1.1-.1l.94-.06c-.21.69-.31,1.21-.37,1.63-.05.46-.1.89-.1,1.26.06.62.1,1.25.32,1.77.21.58.52,1.1.95,1.52.42.48.89.78,1.51,1,.58.26,1.15.36,1.83.36.74,0,1.42-.15,1.99-.47.63-.32,1.1-.79,1.47-1.41.37-.63.53-1.47.53-2.41,0-.84-.21-1.93-.58-3.14"/>
  <path class="cls-7" d="m19.75,87.1c.52.05,1.04,0,1.52-.11.68-.21,1.27-.58,1.73-1.15.47-.58.79-1.21.95-1.99.1-.52.16-1.09.05-1.68-.11-.52-.26-1.05-.57-1.52-.37-.41-.79-.83-1.26-1.09-.52-.31-1.1-.52-1.73-.68-.21-.05-.42-.05-.68-.11v-2.67c.36,0,.78.05,1.15.16.89.21,1.68.53,2.41.99.79.42,1.36,1.05,1.78,1.78.47.74.74,1.57.84,2.46.11.94.05,1.88-.16,2.88-.21.89-.52,1.72-.94,2.51-.42.79-1,1.42-1.68,1.94-.68.47-1.42.78-2.15.89-.42.06-.84.11-1.25.06v-2.67Zm-4.19-5.18c-.16.84-.1,1.62.16,2.35.26.73.68,1.31,1.3,1.78.58.47,1.31.78,2.1.94.21.05.42.11.63.11v2.67c-.37,0-.74-.06-1.16-.16-.89-.16-1.72-.52-2.46-1.05-.78-.47-1.36-1.1-1.78-1.88-.36-.73-.62-1.57-.73-2.46-.1-.89-.05-1.83.16-2.83.21-.84.47-1.62.89-2.36.36-.74.89-1.36,1.57-1.83.63-.52,1.36-.84,2.14-.99.43-.11.89-.11,1.37-.11v2.67h-1c-.53.11-1.05.26-1.47.52-.47.27-.83.63-1.09,1.11-.32.47-.47.94-.63,1.52"/>
  <path class="cls-7" d="m28.76,73.01c-1.52-.84-3.25-1.73-5.19-2.72-1.94-.94-3.78-1.83-5.51-2.56.27-.57.48-1,.63-1.36.1-.26.26-.68.52-1.21.89.48,1.99,1.05,3.2,1.62l3.1,1.57c.94.48,1.83.89,2.72,1.31l.64-1.36c.52-1.31.89-2.15,1.1-2.57.15-.42.31-.78.47-1.2.47.26,1.05.58,1.68.89-.63,1.41-1.15,2.56-1.58,3.56l-1.09,2.57-.68,1.47Z"/>
  <path class="cls-7" d="m34.32,61.39l-2.62-2.04-3.15-2.3-2.83-2.04-.99-.68c.79-1.21,1.62-2.41,2.51-3.72l.89-1.41,1.41-2.1,1.52,1.16-.53.63c-.1.21-.31.47-.52.79-.21.31-.47.68-.68,1.05-.52.73-.84,1.2-.99,1.47-.15.2-.37.52-.63,1l2.51,1.83c.42-.62.89-1.3,1.36-1.99.31-.47.79-1.25,1.52-2.36.42.32.89.68,1.52,1.15-.89,1.26-1.42,1.99-1.52,2.19-.36.58-.84,1.31-1.36,2.15l2.62,1.94.52-.78c.15-.21.52-.79,1.05-1.62l1.05-1.58.62-1.1c.52.42,1.05.84,1.52,1.15-.84,1.25-1.57,2.41-2.26,3.4l-1.62,2.42-.94,1.41Z"/>
  <path class="cls-7" d="m42.65,40.18c.58-.52,1.15-1.1,1.68-1.58.69-.68,1.25-1.25,1.68-1.72,1.26,1.52,2.72,3.14,4.35,4.87-.58.84-1.1,1.52-1.57,2.15-.52.57-.95,1.09-1.36,1.47-.74.73-1.47,1.31-2.25,1.78-.79.42-1.57.73-2.31.78-.79.11-1.58-.05-2.36-.37-.78-.36-1.47-.84-2.09-1.47-.52-.52-.95-1.15-1.25-1.78-.32-.68-.53-1.42-.58-2.14-.1-.74-.05-1.48.16-2.21.21-.73.53-1.41.95-2.04.42-.58.94-1.21,1.52-1.78.78-.78,1.83-1.57,3.09-2.41.47.48.99.94,1.51,1.42-1.31.63-2.35,1.36-3.14,2.15-.53.47-.94,1.05-1.2,1.62-.31.58-.52,1.21-.52,1.83-.06.63.05,1.26.36,1.89.26.63.63,1.15,1.1,1.62.52.58,1.1.94,1.68,1.16.63.26,1.31.26,1.99,0,.68-.22,1.31-.63,1.94-1.21.21-.21.48-.47.74-.84.26-.31.48-.68.74-1.1l-2.05-2.31-.52.48c-.26.31-.63.62-1.05,1.1-.47-.63-.89-1.05-1.21-1.36"/>
  <path class="cls-7" d="m55.12,38.66c-1.04-1.73-2.15-3.51-3.25-5.24-1.15-1.78-2.04-3.14-2.67-4.03l-.53-.78,1.21-.84c.05-.06.42-.32,1.1-.79,1.52,2.68,3.67,6.02,6.45,10.06l-1.11.73c-.15.1-.57.42-1.2.89"/>
  <path class="cls-7" d="m65.5,30.07c.63-.05,1.21-.21,1.78-.47.52-.21.94-.52,1.36-.94.36-.42.68-.84.84-1.36.21-.58.26-1.1.16-1.74-.05-.57-.21-1.15-.47-1.72-.21-.53-.52-1-.94-1.41-.37-.37-.79-.68-1.26-.89-.47-.16-.95-.26-1.47-.21v-2.04h.11c.84-.11,1.63-.05,2.42.16.78.21,1.46.63,2.04,1.15.62.48,1.1,1.21,1.52,2.04.37.84.57,1.68.63,2.51.11.89-.05,1.73-.37,2.51-.31.79-.79,1.52-1.52,2.15-.68.63-1.47,1.15-2.36,1.57-.79.37-1.63.62-2.47.73v-2.04Zm-1.67-8.32c-.79.37-1.42.83-1.83,1.52-.42.63-.63,1.31-.63,2.1s.16,1.51.52,2.3c.31.68.73,1.26,1.3,1.68.53.47,1.15.68,1.94.73h.37v2.04h-.16c-.9.16-1.73.11-2.52-.15-.78-.27-1.46-.63-2.04-1.21-.52-.53-.99-1.21-1.31-1.99-.42-.84-.62-1.67-.68-2.62-.06-.89.1-1.73.47-2.51.37-.79.89-1.47,1.57-2.09.63-.63,1.47-1.16,2.36-1.57.74-.32,1.52-.57,2.31-.68v2.04h-.1c-.53.06-1.05.16-1.57.42"/>
  <path class="cls-7" d="m86.14,25.05l.11-1.99-.05-6.96-.06-2.98c.84-.05,1.42-.11,1.83-.16.32,0,.84-.05,1.68-.16.11.47.21.79.27,1,.11.16.21.47.36.89.16.47.37.95.63,1.57.42.89.78,1.83,1.1,2.72l.89,2.41.89-3.3,1.31-4.29c.06-.16.1-.32.16-.47.05-.21.1-.53.21-1.05.68,0,1.31-.05,1.83-.11.37-.05.89-.1,1.68-.15.06,1.68.15,3.51.32,5.55.1,1.99.21,3.51.32,4.51.05.47.1,1.1.15,1.83-.57,0-.94.06-1.16.06-.31.05-.63.1-1.15.16,0-.63-.06-1.1-.06-1.47l-.31-5.23c-.05-.68-.11-1.41-.16-2.15l-.05-.68-2.46,8.75-.31,1.05c-.58.05-.95.05-1.16.1-.26,0-.68.06-1.2.11l-1.99-5.24c-.05-.16-.21-.57-.48-1.15l-.68-1.73c-.06-.15-.11-.31-.16-.42-.05-.1-.1-.32-.21-.69l-.05,1.1c0,.37,0,.94.05,1.78l.11,5.45c0,.27.05.63.1,1.15l-1.15.11c-.21,0-.58.05-1.16.11"/>
  <path class="cls-7" d="m113.61,15.05c-.26-.05-.58-.05-.84-.05v-1.89c.42,0,.84.05,1.31.1.84.16,1.63.42,2.42.78.73.37,1.36.84,1.88,1.47.52.63.89,1.37,1.1,2.09.16.78.21,1.62.05,2.57-.16.89-.42,1.68-.84,2.46-.47.73-.99,1.37-1.73,1.83-.73.53-1.51.84-2.46.94-.58.1-1.15.1-1.73.1v-1.88c.31,0,.62-.05.94-.1.58-.11,1.04-.37,1.52-.68.42-.31.79-.78,1.05-1.31.31-.52.47-1.1.58-1.73.1-.52.1-1.1.05-1.67-.11-.52-.31-1.04-.57-1.47-.32-.42-.68-.79-1.16-1.05-.47-.26-1-.41-1.58-.52m-.84-.05c-.52,0-1.05.1-1.52.26-.68.31-1.26.79-1.72,1.42-.42.62-.69,1.36-.84,2.2-.1.73-.05,1.41.16,2.09.21.68.58,1.25,1.21,1.67.57.48,1.25.73,1.98.84.27.05.53.1.74.1v1.88c-.37,0-.74-.05-1.1-.1-.94-.16-1.78-.42-2.63-.84-.78-.42-1.47-.94-1.99-1.57-.52-.63-.84-1.37-.99-2.1-.16-.78-.16-1.57,0-2.41.16-.89.48-1.78.89-2.51.47-.78,1.1-1.41,1.83-1.83.74-.48,1.52-.74,2.41-.89.52-.1,1.05-.1,1.57-.1v1.89Z"/>
  <path class="cls-7" d="m123.24,27.71c.48-.94,1.01-1.99,1.58-3.14l1.83-3.88c.63-1.41,1.21-2.67,1.68-3.77.63.26,1.15.47,1.57.68.31.11.78.32,1.42.53.15,1.36.42,3.09.78,5.23.36,2.15.63,3.88.84,5.29l3.41-7.33c.11-.21.21-.47.37-.89.52.21.89.37,1.15.47.11.06.48.21,1.15.48l-1.47,2.88-2.36,4.92-1.31,2.93c-.58-.21-1.06-.42-1.42-.57-.31-.16-.84-.37-1.51-.63-.11-.58-.16-1.05-.21-1.31-.05-.47-.21-1.36-.47-2.77-.16-.94-.37-2.14-.63-3.56-.15-1.05-.31-1.99-.41-2.77-.37.89-1.16,2.46-2.2,4.76-.43.94-.95,2.09-1.52,3.41-.48-.21-.84-.42-1.1-.48-.15-.1-.58-.26-1.16-.47"/>
  <path class="cls-7" d="m140.96,36.41l1.62-1.99,2.3-3.03,2.2-2.98-.53-.37-.47-.32-.48-.26-1.68-1.09c.52-.69.9-1.21,1.16-1.58,1.36.99,2.83,1.99,4.35,2.99l2.56,1.77,1.41.95c-.52.63-.89,1.15-1.15,1.51-.84-.62-1.68-1.2-2.46-1.78l-.58-.37-.99,1.26-3.62,4.93-.63.84c-.21.37-.48.73-.73,1.1l-1.11-.78c-.1-.06-.52-.32-1.2-.79"/>
  <path class="cls-7" d="m149.82,42.95l2.52-2.2,2.87-2.62,2.52-2.41.84-.84c1.05,1.05,2.1,2.1,3.2,3.19l1.21,1.16,1.77,1.78-1.35,1.26-.58-.63c-.16-.16-.37-.37-.62-.68-.31-.26-.58-.57-.9-.84-.63-.68-1.05-1.05-1.25-1.26-.22-.15-.48-.47-.89-.84l-2.25,2.15c.52.57,1.1,1.1,1.67,1.68.42.42,1.1,1.05,2.04,1.99-.37.32-.89.74-1.41,1.26-1.1-1.11-1.73-1.74-1.89-1.89-.47-.53-1.1-1.1-1.83-1.78l-2.42,2.2.68.68c.21.21.63.68,1.36,1.36l1.37,1.31.94.84c-.52.42-.99.84-1.42,1.26-1.04-1.05-2.04-2.04-2.88-2.88l-2.09-1.99-1.21-1.26Z"/>
  <path class="cls-7" d="m159.52,52.9c.68-.53,1.26-.99,1.67-1.41.21,1.25.64,2.25,1.15,2.99.21.31.47.58.73.78.26.21.53.31.79.31s.52-.05.73-.21c.15-.1.27-.26.37-.42.1-.21.15-.47.2-.84.1-.47.16-1.25.26-2.35.05-.53.11-.94.16-1.15.05-.47.16-.84.26-1.16.1-.31.25-.57.42-.78.16-.21.37-.42.63-.58.42-.32.94-.47,1.52-.52.57,0,1.1.16,1.68.47.57.37,1.15.89,1.68,1.62.47.68.95,1.52,1.37,2.51-.48.36-1,.79-1.58,1.31-.26-.94-.58-1.73-1.05-2.36-.32-.47-.69-.73-1.11-.89-.42-.16-.78-.16-1.04.06-.1.05-.16.15-.21.21-.11.11-.16.16-.21.26-.05.11-.1.27-.15.42-.06.21-.06.47-.11.78,0,.32-.05.63-.05.84l-.16,1.42c-.05.37-.05.68-.11.99-.05.31-.16.57-.21.83-.05.21-.16.43-.26.58-.11.21-.22.37-.32.53-.16.1-.31.26-.48.36-.41.31-.83.48-1.3.53-.52.05-1,0-1.47-.16-.46-.22-.89-.47-1.25-.84-.37-.31-.74-.73-1.05-1.2-.2-.31-.46-.68-.68-1.1-.26-.48-.52-1.04-.83-1.84"/>
  <path class="cls-7" d="m166.38,63.27c.74-.42,1.36-.79,1.84-1.1.05,1.26.26,2.3.68,3.14.16.32.37.63.58.84.26.26.52.42.79.47.2.05.47,0,.68-.1.21-.1.37-.21.47-.31.11-.21.27-.48.37-.78.11-.47.36-1.2.62-2.3.17-.52.27-.89.32-1.1.16-.47.31-.84.47-1.1.16-.32.31-.52.52-.73.21-.16.43-.31.69-.48.52-.21,1.05-.31,1.62-.26.58.11,1.11.31,1.63.78.47.42.94,1.05,1.36,1.89.37.73.69,1.62.95,2.67-.52.26-1.15.63-1.84,1.05-.05-.99-.25-1.78-.57-2.51-.26-.47-.58-.84-1-1.05-.37-.26-.73-.26-1.05-.1-.05,0-.15.05-.21.16-.1.05-.15.15-.26.21-.05.1-.1.21-.21.41-.05.16-.15.42-.21.74-.1.32-.15.58-.21.79l-.42,1.41c-.05.37-.16.68-.27.95-.1.32-.21.57-.31.78-.1.21-.21.42-.37.58-.1.15-.26.26-.42.42-.16.1-.31.21-.47.31-.47.21-.94.32-1.42.26-.47,0-.94-.1-1.41-.36-.42-.26-.79-.63-1.1-1.05-.31-.36-.63-.84-.84-1.36-.16-.32-.31-.74-.46-1.21-.16-.47-.37-1.1-.53-1.94"/>
  <path class="cls-7" d="m183.05,78.82c-.21-.84-.63-1.52-1.15-2.04-.58-.53-1.21-.89-1.99-1.05-.31-.06-.68-.06-1.05-.06v-2.61c.27,0,.47,0,.74.05.89.11,1.73.42,2.41.89.68.47,1.26,1.1,1.78,1.89.48.78.84,1.68,1.1,2.62.21.83.31,1.67.26,2.51,0,.84-.21,1.62-.58,2.35-.36.74-.89,1.32-1.47,1.84-.62.47-1.41.84-2.36,1.05-.63.15-1.26.26-1.89.26v-2.62c.37-.05.79-.11,1.16-.21.58-.1,1.1-.36,1.57-.63.42-.31.84-.68,1.1-1.15.27-.42.48-.89.48-1.47.05-.53.05-1.05-.11-1.62m-4.19-3.15c-.42,0-.83.06-1.26.16-.74.21-1.36.53-1.94,1-.52.47-.89,1.04-1.05,1.78-.16.68-.1,1.41.06,2.15.15.57.36,1.1.68,1.57.37.42.74.78,1.26,1.04.47.32.99.48,1.62.48.21.05.42.05.63.05v2.62c-.21,0-.47-.05-.68-.05-.89-.11-1.68-.37-2.41-.79-.73-.47-1.3-1.09-1.83-1.88-.47-.84-.89-1.67-1.1-2.61-.26-.95-.31-1.84-.31-2.72.06-.89.26-1.73.68-2.46.37-.73.89-1.31,1.52-1.78.63-.42,1.36-.73,2.2-.94.63-.16,1.31-.26,1.94-.21v2.61Z"/>
  <path class="cls-7" d="m175.19,92.65c1.73.16,3.77.21,6.02.21s4.2,0,5.92-.05c0,.68.05,1.25.05,1.72,0,.53.05.99.05,1.51.04.48.04,1,.1,1.52,0,.68,0,1.26-.06,1.83-.04.53-.21.99-.46,1.41-.27.42-.58.73-.99.94-.37.22-.84.37-1.31.37-.37,0-.68,0-.94-.1-.31-.05-.57-.16-.84-.32-.26-.11-.52-.26-.74-.47-.15-.22-.36-.42-.47-.58-.1-.21-.21-.47-.32-.68-.1-.26-.21-.63-.31-1.04l-1.16.62c-.37.21-.99.63-1.94,1.16l-1.52.94c-.06.05-.32.21-.79.47v-1.41c0-.27-.05-.78-.05-1.47l2.25-1.05c.37-.21.78-.42,1.26-.68l2.1-1.1c.15-.1.47-.27.84-.48-.05.37-.05.74-.05,1.05,0,.52.1.94.31,1.35.16.42.42.74.79.95.31.21.68.31,1.1.26.26,0,.47-.05.68-.15.21-.1.37-.26.52-.47.1-.26.21-.52.26-.84v-1.67c-.05-.27-.05-.68-.05-1.1l-3.62-.05-6.56.1-.05-1.36c0-.21,0-.68-.05-1.36"/>
  <path class="cls-7" d="m175.08,107.2c1.94.37,3.98.73,6.08,1.05,2.04.36,3.67.57,4.77.73l.94.05-.21,1.47c0,.1-.05.52-.16,1.31-2.99-.57-6.92-1.2-11.79-1.83l.21-1.26c0-.21.05-.74.15-1.52"/>
  <path class="cls-2" d="m94.7,69.32c-3.08-10.06-9.2-10.19-9.46-10.19v-1.44c.29,0,7.42.06,10.84,11.21l-1.38.42Z"/>
  <path class="cls-7" d="m86.24,59.68c-.77.72-1.96.72-2.69,0-.77-.72-.77-1.9-.05-2.62.78-.78,1.97-.78,2.69-.05.77.72.77,1.9.05,2.67"/>
  <path class="cls-2" d="m84.87,60.95c-.67,0-1.33-.25-1.83-.76-.49-.46-.78-1.11-.79-1.8-.01-.69.25-1.35.74-1.84.52-.52,1.19-.84,1.9-.8.69,0,1.33.27,1.81.75,1.03.96,1.07,2.58.07,3.67l-.04.04c-.53.49-1.2.74-1.85.74m.01-3.76c-.32,0-.64.13-.88.38-.21.21-.32.5-.32.8,0,.3.13.58.36.79.45.45,1.19.45,1.68.02.44-.5.43-1.21-.03-1.64-.23-.23-.51-.35-.81-.35h0Z"/>
  <path class="cls-2" d="m104.24,69.32l-1.38-.42c3.41-11.15,10.55-11.21,10.84-11.21v1.44s0-.72,0-.72v.72c-.26,0-6.38.13-9.46,10.19"/>
  <path class="cls-7" d="m112.7,59.68c.77.72,1.96.72,2.68,0,.77-.72.77-1.9.05-2.62-.77-.78-1.96-.78-2.68-.05-.77.72-.77,1.9-.05,2.67"/>
  <path class="cls-2" d="m114.07,60.95c-.66,0-1.33-.25-1.86-.74l-.04-.04c-1.01-1.09-.97-2.71.09-3.69.46-.46,1.1-.73,1.78-.73h0c.71,0,1.38.28,1.89.8.49.49.76,1.15.74,1.84-.01.69-.3,1.34-.81,1.82-.5.49-1.15.74-1.81.74m-.85-1.78c.49.44,1.22.44,1.67,0,.24-.22.36-.51.37-.81,0-.3-.11-.58-.32-.8-.24-.24-.55-.38-.87-.38h0c-.3,0-.57.12-.78.32-.48.45-.49,1.16-.05,1.66"/>
  <path class="cls-7" d="m132.81,105.39l-28.86-13.32c-1.57-.75-3.24-1.14-4.85-1.12-1.6-.02-3.28.37-4.85,1.12l-28.86,13.32c-13.22,6.22-15.77,17.64-11.41,23.95,4.36,6.31,13.24,9.67,21.2,2.17l23.91-22.8,23.91,22.8c7.96,7.5,16.84,4.14,21.2-2.17,4.36-6.31,1.82-17.73-11.41-23.95"/>
  <path class="cls-2" d="m65.43,136.76c-.45,0-.91-.02-1.36-.07-4.22-.45-8.18-2.93-10.87-6.81-2.1-3.03-2.68-7.08-1.59-11.1,1.59-5.89,6.34-10.95,13.38-14.26l28.87-13.32c1.69-.81,3.52-1.23,5.26-1.21,1.73-.02,3.55.39,5.25,1.21l28.85,13.32c7.04,3.31,11.79,8.37,13.38,14.26,1.08,4.02.5,8.07-1.59,11.1-2.69,3.88-6.65,6.36-10.87,6.81-4.13.43-8.21-1.11-11.78-4.49l-23.25-22.17-23.25,22.16c-3.18,3-6.76,4.56-10.42,4.56m33.57-44.85c-1.44,0-2.92.35-4.32,1.02l-28.87,13.32c-6.52,3.07-10.9,7.69-12.34,13.02-.94,3.48-.46,6.94,1.32,9.51,2.33,3.37,5.88,5.61,9.49,5.99,3.56.37,7.11-1,10.26-3.97l24.57-23.42,24.58,23.43c3.15,2.97,6.7,4.34,10.26,3.97,3.61-.38,7.16-2.62,9.49-5.99,1.77-2.57,2.26-6.03,1.32-9.51-1.44-5.33-5.82-9.95-12.34-13.02l-28.86-13.32c-1.45-.7-2.97-1.05-4.43-1.03h-.12"/>
  <path class="cls-7" d="m85.21,139.09c0,7.66,6.22,13.88,13.89,13.88s13.9-6.22,13.9-13.88l-6.1-40.4c-.67-4.23-3.49-7.79-7.8-7.79s-7.22,3.81-7.79,7.79l-6.1,40.4Z"/>
  <path class="cls-2" d="m99.1,153.93c-8.19,0-14.86-6.66-14.86-14.84v-.14s6.11-40.4,6.11-40.4c.62-4.27,3.82-8.6,8.74-8.6,4.42,0,7.93,3.45,8.74,8.6l6.11,40.55c0,8.18-6.66,14.84-14.86,14.84m-12.93-14.77c.04,7.09,5.83,12.85,12.93,12.85s12.9-5.76,12.94-12.85l-6.09-40.33c-.55-3.47-2.88-6.97-6.84-6.97s-6.34,3.5-6.84,6.96l-6.09,40.33Z"/>
  <path class="cls-7" d="m107.85,87.08c-4.74,4.85-12.47,4.89-17.31.11-4.84-4.74-4.94-12.51-.16-17.35,4.75-4.84,12.47-4.89,17.31-.15,4.85,4.78,4.89,12.56.16,17.39"/>
  <path class="cls-2" d="m99.15,91.7c-3.49,0-6.78-1.36-9.29-3.84-2.54-2.48-3.95-5.8-3.97-9.35-.03-3.53,1.32-6.85,3.81-9.36,5.08-5.19,13.46-5.26,18.67-.16,5.2,5.13,5.27,13.54.17,18.75-2.47,2.52-5.76,3.92-9.27,3.95h-.11m-.05-24.56c-2.92,0-5.84,1.12-8.03,3.37-2.12,2.15-3.28,4.98-3.26,8,.02,3.03,1.23,5.87,3.4,7.99,2.17,2.14,5.02,3.3,8.04,3.28,2.99-.03,5.8-1.22,7.91-3.38h0c4.37-4.45,4.3-11.65-.14-16.04-2.2-2.15-5.06-3.23-7.92-3.23"/>
  <rect class="cls-2" x="89.78" y="106.51" width="18.65" height="1.92"/>
  <rect class="cls-2" x="87.08" y="121.85" width="24.06" height="1.92"/>
  <rect class="cls-2" x="85.25" y="135.39" width="27.71" height="1.92"/>
</svg>